<?xml version="1.0" standalone="no"?>
<!DOCTYPE svg PUBLIC "-//W3C//DTD SVG 20010904//EN"
 "http://www.w3.org/TR/2001/REC-SVG-20010904/DTD/svg10.dtd">
<svg version="1.0" xmlns="http://www.w3.org/2000/svg"
 width="512.000000pt" height="512.000000pt" viewBox="0 0 512.000000 512.000000"
 preserveAspectRatio="xMidYMid meet">

<g transform="translate(0.000000,512.000000) scale(0.100000,-0.100000)"
fill="#000000" stroke="none">
<path d="M2804 5095 c-93 -29 -187 -94 -243 -167 l-37 -49 28 -60 c62 -129 75
-280 38 -420 -30 -113 -27 -130 26 -190 101 -114 141 -204 150 -334 7 -97 -18
-223 -69 -351 l-34 -84 88 -2 c49 -1 96 -2 105 -2 21 -1 53 83 104 271 72 263
117 532 127 753 5 119 5 126 -16 144 -28 25 -77 25 -103 -1 -17 -18 -22 -40
-29 -149 -9 -122 -46 -404 -54 -412 -2 -2 -13 13 -23 35 -11 21 -44 64 -73 96
-66 75 -71 99 -41 212 33 127 28 255 -17 374 -38 100 -35 122 19 184 54 61
134 113 216 142 l69 24 -95 -1 c-52 0 -113 -6 -136 -13z"/>
</g>
</svg>
